<svg viewBox="0 0 256 171.5" width="256" height="171.5"  fill="none" xmlns="http://www.w3.org/2000/svg">
<mask id="mask0_2_8" style="mask-type:alpha" maskUnits="userSpaceOnUse" x="0" y="0" width="256" height="172">
<rect width="256" height="171.5" fill="#D9D9D9"/>
</mask>
<g mask="url(#mask0_2_8)">
<path d="M47.2 71.4583C49.6889 67.1708 50.0889 63.3597 48.4 60.025C46.7111 56.6903 43.8222 53.3556 39.7333 50.0208C33.8667 45.2569 30 40.761 28.1333 36.5331C26.2667 32.3051 25.9556 27.2733 27.2 21.4375H48C46.5778 25.9632 46.3556 29.6552 47.3333 32.5135C48.3111 35.3719 50.8444 38.4684 54.9333 41.8031C61.6889 47.2816 66 52.1348 67.8667 56.3628C69.7333 60.5907 69.7778 65.6226 68 71.4583H47.2ZM89.8667 71.4583C92.3556 67.1708 92.8 63.3597 91.2 60.025C89.6 56.6903 86.7556 53.3556 82.6667 50.0208C76.8 45.2569 72.8889 40.761 70.9333 36.5331C68.9778 32.3051 68.6222 27.2733 69.8667 21.4375H90.6667C89.2444 25.9632 89.0222 29.6552 90 32.5135C90.9778 35.3719 93.5111 38.4684 97.6 41.8031C104.356 47.2816 108.667 52.1348 110.533 56.3628C112.4 60.5907 112.444 65.6226 110.667 71.4583H89.8667ZM132.533 71.4583C135.022 67.1708 135.467 63.3597 133.867 60.025C132.267 56.6903 129.422 53.3556 125.333 50.0208C119.467 45.2569 115.556 40.761 113.6 36.5331C111.644 32.3051 111.289 27.2733 112.533 21.4375H133.333C131.911 25.9632 131.689 29.6552 132.667 32.5135C133.644 35.3719 136.178 38.4684 140.267 41.8031C147.022 47.2816 151.333 52.1348 153.2 56.3628C155.067 60.5907 155.111 65.6226 153.333 71.4583H132.533ZM53.3333 142.917C44.4444 142.917 36.8889 140.832 30.6667 136.664C24.4444 132.496 21.3333 127.434 21.3333 121.479V85.75H170.933C171.822 81.7007 174.222 78.1576 178.133 75.1206C182.044 72.0836 186.844 69.9101 192.533 68.6L241.867 57.524L248.533 71.101L199.2 82.1771C197.067 82.6535 195.333 83.5169 194 84.7674C192.667 86.018 192 87.4174 192 88.9656V121.479C192 127.434 188.889 132.496 182.667 136.664C176.444 140.832 168.889 142.917 160 142.917H53.3333ZM53.3333 128.625H160C163.022 128.625 165.556 127.94 167.6 126.571C169.644 125.201 170.667 123.504 170.667 121.479V100.042H42.6667V121.479C42.6667 123.504 43.6889 125.201 45.7333 126.571C47.7778 127.94 50.3111 128.625 53.3333 128.625Z" fill="#0C3B2E"/>
</g>
</svg>